<svg width="32" height="33" viewBox="0 0 32 33" fill="none" xmlns="http://www.w3.org/2000/svg">
<path d="M23.4774 23.6504L22.4571 23.0777C21.5757 22.5832 20.6948 22.0888 19.8161 21.5904C18.2203 20.6842 17.3504 20.8198 16.0914 22.167L15.7822 22.5038C15.5192 22.7838 15.4134 22.8698 15.458 22.8776C15.425 22.8726 15.3152 22.8417 14.9845 22.6665C13.8699 22.0767 12.8424 21.3468 11.9301 20.4962C11.0427 19.6209 10.2704 18.6248 9.63428 17.5361C9.46836 17.2522 9.43309 17.1381 9.39997 17.1469C9.43029 17.0951 9.52012 16.9815 9.76381 16.733L10.0879 16.4083C11.3806 15.0947 11.4787 14.2199 10.5075 12.6637C9.94576 11.7636 9.38791 10.8606 8.83059 9.95773L8.29588 9.09231C8.12664 8.81837 7.61013 7.98319 6.71276 7.88951C5.81975 7.78807 5.15166 8.49645 4.93171 8.72632L4.07391 9.63131C3.50504 10.2338 2.9367 10.8363 2.35407 11.425C1.62151 12.167 1.26374 13.0242 1.34477 13.8025C1.4732 15.8928 2.09552 17.788 3.30386 19.7658C4.52758 21.7679 5.93769 23.5632 7.51423 25.1199C9.11945 26.6138 10.9727 27.9478 13.0227 29.0844C15.0502 30.2095 16.969 30.7524 19.0268 30.791C19.0731 30.7937 19.1194 30.7954 19.1657 30.7954C19.938 30.7954 20.7246 30.4046 21.3949 29.6842C21.9594 29.0778 22.5381 28.4841 23.1164 27.8905L23.984 26.9964C24.2051 26.767 24.8765 26.0703 24.7459 25.1823C24.6141 24.2892 23.7585 23.8085 23.4774 23.6504ZM22.7647 25.8211L21.9031 26.7085C21.3161 27.3116 20.7284 27.9146 20.1557 28.5304C19.8117 28.9008 19.3994 29.1307 19.0952 29.0993C17.2893 29.0645 15.6207 28.5894 13.8441 27.6037C11.9137 26.5332 10.1723 25.2808 8.68612 23.8978C7.22536 22.4552 5.90131 20.7673 4.74917 18.8826C3.69025 17.1501 3.14564 15.5025 3.03207 13.664C3.00228 13.3763 3.20405 12.9744 3.55909 12.6156C4.14999 12.017 4.72772 11.4057 5.30539 10.7938L6.15647 9.89521C6.3836 9.65765 6.51255 9.59311 6.52083 9.5744C6.55779 9.59813 6.6752 9.69018 6.85546 9.9829L7.38958 10.8472C7.94854 11.7523 8.50749 12.6575 9.07082 13.5599C9.62039 14.4413 9.61707 14.4722 8.88118 15.2202L8.5543 15.5476C7.54943 16.5729 7.46729 17.1843 8.17228 18.3903C8.87674 19.5965 9.73174 20.7017 10.7141 21.6752C10.7262 21.6884 10.7388 21.7005 10.7515 21.7127C10.7538 21.7149 10.756 21.7165 10.7576 21.7182C10.7598 21.7204 10.762 21.7232 10.7648 21.7254C10.7774 21.738 10.7907 21.7501 10.8045 21.7617C11.8182 22.7027 12.9582 23.5103 14.1924 24.1629C15.4271 24.8167 16.0341 24.7103 17.0175 23.6618L17.3295 23.3223C18.0472 22.5555 18.0775 22.5511 18.9804 23.0632C19.8613 23.5626 20.7449 24.0587 21.6285 24.5543L22.6472 25.1264C22.9482 25.2957 23.0452 25.4087 23.0656 25.4125C23.0519 25.4529 22.9929 25.5841 22.7647 25.8211Z" fill="#333333"/>
<path d="M29.8195 18.2152C29.8928 18.2152 29.9678 18.2058 30.0422 18.1854C30.4931 18.0631 30.7599 17.5978 30.637 17.1463C29.6564 13.5346 27.7028 10.2493 24.9874 7.64523C22.2731 5.0423 18.91 3.2282 15.2619 2.39915C14.8022 2.2955 14.3519 2.58163 14.2488 3.03751C14.1451 3.4934 14.4307 3.94707 14.8872 4.05066C18.2354 4.81191 21.3229 6.47718 23.8155 8.86791C26.3087 11.2586 28.1025 14.275 29.0032 17.5907C29.1051 17.9672 29.4468 18.2152 29.8195 18.2152Z" fill="#FBC100"/>
<path d="M22.8186 17.504C22.9256 17.875 23.264 18.1159 23.6317 18.1159C23.7094 18.1159 23.7888 18.1054 23.8671 18.0829C24.3164 17.9533 24.5754 17.4837 24.4459 17.0345C23.22 12.785 19.7808 9.53104 15.4701 8.54155C15.0099 8.43405 14.56 8.72233 14.4553 9.17711C14.3505 9.633 14.6355 10.0872 15.0908 10.192C18.8023 11.0436 21.7636 13.8455 22.8186 17.504Z" fill="#FBC100"/>
<path d="M14.6746 14.7661C14.7116 15.2319 15.1156 15.5715 15.5864 15.5422C16.0284 15.5036 16.4661 15.647 16.8079 15.9369C17.1486 16.2274 17.3564 16.6337 17.3922 17.0802C17.4275 17.5234 17.7985 17.8591 18.2351 17.8591C18.2577 17.8591 18.2809 17.858 18.304 17.8564C18.7698 17.8189 19.1176 17.411 19.0801 16.9447C19.0085 16.0472 18.5912 15.2314 17.9054 14.6477C17.2197 14.0639 16.3477 13.785 15.4508 13.8544C14.985 13.8919 14.6372 14.2998 14.6746 14.7661Z" fill="#FBC100"/>
</svg>
