<svg width="28" height="29" viewBox="0 0 28 29" fill="none" xmlns="http://www.w3.org/2000/svg">
<g clip-path="url(#clip0)">
<path d="M19.256 17.3502V25.0435C19.256 26.2182 18.4422 27.1784 17.448 27.1784H6.47452C5.47973 27.1784 4.6665 26.2182 4.6665 25.0435V3.6461C4.6665 2.47192 5.47973 1.51172 6.47452 1.51172H17.448C18.4422 1.51172 19.256 2.47192 19.256 3.6461V6.02581" stroke="#333333" stroke-width="1.5"/>
<path fill-rule="evenodd" clip-rule="evenodd" d="M17.6349 17.7221C16.4283 17.7221 15.282 17.3682 14.3166 16.7778C14.1356 16.6598 13.9541 16.6598 13.7736 16.7187L11.7829 17.3682L12.4459 15.4207C12.5067 15.2435 12.5067 15.0665 12.3862 14.8896C11.7227 13.8856 11.4209 12.7644 11.4209 11.6432C11.4209 8.2792 14.1961 5.56421 17.6349 5.56421C21.0737 5.56421 23.849 8.2792 23.849 11.6432C23.7887 15.0071 21.0135 17.7221 17.6349 17.7221Z" stroke="#FBC100" stroke-width="1.5"/>
<path fill-rule="evenodd" clip-rule="evenodd" d="M13.3119 24.0713C13.3119 24.3937 13.1839 24.7029 12.9559 24.931C12.7278 25.159 12.4186 25.2871 12.0962 25.2871C11.7737 25.2871 11.4645 25.159 11.2365 24.931C11.0085 24.7029 10.8804 24.3937 10.8804 24.0713C10.8804 23.7488 11.0085 23.4396 11.2365 23.2116C11.4645 22.9836 11.7737 22.8555 12.0962 22.8555C12.4186 22.8555 12.7278 22.9836 12.9559 23.2116C13.1839 23.4396 13.3119 23.7488 13.3119 24.0713Z" fill="#FBC100"/>
</g>
<defs>
<clipPath id="clip0">
<rect width="28" height="28" fill="white" transform="translate(0 0.344971)"/>
</clipPath>
</defs>
</svg>
