<svg width="34" height="35" viewBox="0 0 34 35" fill="none" xmlns="http://www.w3.org/2000/svg">
<path d="M31.2477 18.3943C31.2477 20.0421 31.2477 21.6898 31.2477 23.3375C31.2477 23.4278 31.2491 23.518 31.2445 23.6082C31.2361 23.775 31.2755 23.44 31.2452 23.6023C31.234 23.6623 31.2159 23.7208 31.1968 23.7787C31.1466 23.9317 31.2685 23.6292 31.1991 23.7735C31.1732 23.8272 31.1414 23.8779 31.1088 23.9279C31.0223 24.0608 31.215 23.8029 31.1124 23.9234C31.074 23.9686 31.0306 24.0093 30.9869 24.0492C30.8698 24.1557 31.1214 23.9549 30.9915 24.0458C30.9426 24.08 30.8901 24.1086 30.8373 24.1363C30.6954 24.2104 30.9938 24.0787 30.8427 24.1341C30.7998 24.1499 30.7555 24.1612 30.7113 24.1726C30.6657 24.1844 30.5072 24.2032 30.7193 24.178C30.6718 24.1837 30.6234 24.1852 30.5756 24.1852C30.4852 24.1852 30.3948 24.1852 30.3044 24.1852C30.0708 24.1852 29.8372 24.1852 29.6036 24.1852C29.8429 24.4245 30.0823 24.6639 30.3216 24.9032C30.3008 24.0963 29.9826 23.3348 29.4121 22.7619C28.8459 22.1934 28.0552 21.8847 27.2578 21.8767C26.4554 21.8687 25.6762 22.2081 25.1036 22.7619C24.5268 23.3196 24.2146 24.1078 24.1941 24.9032C24.4334 24.6639 24.6728 24.4245 24.9121 24.1852C24.1236 24.1852 23.3351 24.1852 22.5465 24.1852C22.7859 24.4245 23.0252 24.6639 23.2646 24.9032C23.2646 23.6505 23.2646 22.3978 23.2646 21.145C23.2646 18.9827 23.2646 16.8203 23.2646 14.6579C23.2646 13.879 23.2646 13.1002 23.2646 12.3213C23.0252 12.5606 22.7859 12.7999 22.5465 13.0393C24.239 13.0393 25.9314 13.0393 27.6239 13.0393C27.8705 13.0393 28.1206 13.0292 28.3665 13.0519C28.5381 13.0677 28.1995 13.0244 28.3678 13.054C28.4149 13.0623 28.4615 13.0735 28.508 13.0847C28.5998 13.1067 28.6894 13.1372 28.7777 13.1703C28.5731 13.0935 28.8489 13.2082 28.9004 13.2364C28.941 13.2585 28.9801 13.2832 29.0192 13.3077C29.0567 13.3313 29.2299 13.4603 29.0611 13.3293C29.1339 13.3857 29.2014 13.4485 29.267 13.5131C29.3062 13.5517 29.4997 13.784 29.3666 13.6117C29.4236 13.6854 29.474 13.7639 29.522 13.8435C29.5463 13.8837 29.5682 13.9252 29.59 13.9667C29.6108 14.006 29.6974 14.208 29.6159 14.0102C29.9029 14.7069 30.1319 15.4329 30.3883 16.1411C30.6833 16.9558 30.9783 17.7705 31.2733 18.5852C31.4065 18.9528 31.7567 19.1967 32.1566 19.0867C32.5114 18.9891 32.7914 18.5717 32.658 18.2034C32.1244 16.7297 31.5907 15.2559 31.0571 13.7821C30.781 13.0196 30.3073 12.3697 29.5846 11.9742C29.0838 11.7002 28.5332 11.6033 27.9689 11.6033C27.0731 11.6033 26.1774 11.6033 25.2815 11.6033C24.3699 11.6033 23.4582 11.6033 22.5466 11.6033C22.1552 11.6033 21.8286 11.9299 21.8286 12.3213C21.8286 13.574 21.8286 14.8267 21.8286 16.0795C21.8286 18.2418 21.8286 20.4042 21.8286 22.5665C21.8286 23.3454 21.8286 24.1243 21.8286 24.9032C21.8286 25.2946 22.1552 25.6212 22.5466 25.6212C23.3352 25.6212 24.1236 25.6212 24.9122 25.6212C25.3112 25.6212 25.6201 25.2944 25.6302 24.9032C25.6318 24.8397 25.6353 24.7767 25.6408 24.7134C25.6497 24.6338 25.647 24.6509 25.6328 24.7647C25.6395 24.7188 25.649 24.6733 25.6585 24.6278C25.671 24.5678 25.6877 24.5087 25.7048 24.4499C25.7191 24.4013 25.8151 24.1576 25.7267 24.3656C25.7796 24.2413 25.8466 24.1236 25.9198 24.0104C25.9363 23.9855 25.9532 23.961 25.9706 23.9368C26.0625 23.8061 25.8664 24.0642 25.9679 23.9411C26.0151 23.8836 26.0667 23.8299 26.1191 23.7772C26.1611 23.7351 26.2058 23.6958 26.2508 23.6569C26.3097 23.6088 26.2961 23.6184 26.2101 23.6856C26.2456 23.6584 26.2826 23.6332 26.3195 23.608C26.4311 23.532 26.5509 23.4691 26.6737 23.4134C26.4742 23.5038 26.6689 23.4198 26.714 23.4044C26.7864 23.3797 26.8607 23.3608 26.9351 23.3434C26.9653 23.3367 26.9956 23.3305 27.0259 23.325C27.1896 23.2935 26.8536 23.343 27.0203 23.3245C27.0992 23.3158 27.1786 23.3135 27.2579 23.3126C27.3215 23.312 27.3851 23.3158 27.4485 23.3203C27.4798 23.3228 27.511 23.3259 27.5422 23.3297C27.3291 23.3061 27.4901 23.325 27.5354 23.3337C27.6704 23.3597 27.8019 23.4015 27.9301 23.4508C27.7264 23.3725 27.9214 23.4501 27.9643 23.4716C28.0312 23.5051 28.0955 23.5437 28.1588 23.5835C28.2018 23.6104 28.4042 23.767 28.2307 23.6284C28.2888 23.6748 28.3433 23.7256 28.3967 23.7772C28.4395 23.8186 28.4794 23.8627 28.5189 23.9071C28.5384 23.9295 28.5576 23.9523 28.5763 23.9755C28.4465 23.8178 28.5455 23.9372 28.571 23.9733C28.6485 24.0836 28.7132 24.2024 28.7706 24.3243C28.8019 24.3947 28.7955 24.3791 28.7513 24.2777C28.7624 24.306 28.7728 24.3344 28.7828 24.363C28.8085 24.435 28.8285 24.5088 28.847 24.5828C28.8599 24.6341 28.8993 24.8977 28.8701 24.6665C28.88 24.745 28.8836 24.8241 28.8856 24.9031C28.8957 25.2943 29.2046 25.6212 29.6037 25.6212C30.0828 25.6212 30.5751 25.6559 31.0482 25.5673C31.9976 25.3894 32.6838 24.4509 32.6838 23.5103C32.6838 22.7659 32.6838 22.0214 32.6838 21.2771C32.6838 20.3161 32.6838 19.3552 32.6838 18.3943C32.6838 18.0029 32.3571 17.6763 31.9657 17.6763C31.5744 17.6763 31.2477 18.003 31.2477 18.3943Z" fill="#333333"/>
<path d="M21.8288 9.36693C21.8288 10.4418 21.8288 11.5167 21.8288 12.5916C21.8288 14.7714 21.8288 16.9512 21.8288 19.131C21.8288 20.8484 21.8288 22.5659 21.8288 24.2834C21.8288 24.49 21.8288 24.6966 21.8288 24.9032C22.0682 24.6638 22.3075 24.4245 22.5469 24.1852C21.2572 24.1852 19.9676 24.1852 18.6781 24.1852C16.552 24.1852 14.4259 24.1852 12.2998 24.1852C11.7073 24.1852 11.1148 24.1852 10.5224 24.1852C10.7617 24.4245 11.0011 24.6638 11.2404 24.9032C11.2196 24.0963 10.9014 23.3347 10.3309 22.7618C9.76473 22.1933 8.97403 21.8846 8.17664 21.8766C7.37422 21.8686 6.59504 22.2081 6.02242 22.7618C5.44562 23.3196 5.13343 24.1078 5.11288 24.9032C5.35221 24.6638 5.59155 24.4245 5.83088 24.1852C5.44863 24.1852 5.06641 24.1852 4.68416 24.1852C4.29141 24.1852 3.88888 24.2111 3.49696 24.178C3.7047 24.1955 3.55405 24.1835 3.50482 24.1726C3.4602 24.1627 3.41668 24.1483 3.37336 24.1341C3.22035 24.0837 3.52291 24.2057 3.37862 24.1362C3.33824 24.1167 3.29988 24.0934 3.26162 24.0701C3.22343 24.0469 3.10294 23.9505 3.26251 24.078C3.22774 24.0502 3.1957 24.0192 3.1638 23.9882C3.13183 23.9573 3.10291 23.9234 3.07405 23.8895C3.21109 24.0503 3.0853 23.896 3.05866 23.8522C3.03535 23.8138 3.01582 23.7733 2.99634 23.7329C3.08424 23.9153 3.0189 23.7815 3.00372 23.7354C2.98936 23.6918 2.97941 23.647 2.96946 23.6022C2.93366 23.441 2.98413 23.7746 2.97008 23.6081C2.96703 23.5721 2.96686 23.5359 2.96686 23.4998C2.96686 23.3766 2.96686 23.2535 2.96686 23.1303C2.96686 21.4592 2.96686 19.7881 2.96686 18.1169C2.96686 15.978 2.96686 13.8391 2.96686 11.7002C2.96686 11.046 2.96686 10.3917 2.96686 9.73756C2.96686 9.61762 2.96686 9.49771 2.96686 9.37781C2.96686 9.34242 2.9683 9.3071 2.97008 9.27175C2.97856 9.10489 2.9391 9.43986 2.96946 9.27763C2.97791 9.23249 2.99083 9.18839 3.00372 9.14439C3.01651 9.10076 3.0801 8.9576 2.99634 9.14695C3.02054 9.09221 3.05087 9.04048 3.08188 8.98943C3.1051 8.95124 3.20151 8.83075 3.07405 8.99032C3.10185 8.95555 3.13286 8.92351 3.1638 8.89158C3.19478 8.85961 3.2287 8.83069 3.26251 8.80183C3.11036 8.93151 3.22179 8.83564 3.26162 8.80966C3.29916 8.78514 3.33896 8.76436 3.37862 8.74364C3.52062 8.66944 3.22213 8.80111 3.37336 8.74572C3.41627 8.73003 3.46061 8.71861 3.50482 8.70722C3.53477 8.70004 3.56493 8.69385 3.59529 8.68869C3.48119 8.7023 3.46406 8.70534 3.5439 8.69782C3.83264 8.67341 4.13089 8.69461 4.42004 8.69461C5.1217 8.69461 5.82332 8.69461 6.52499 8.69461C8.63626 8.69461 10.7476 8.69461 12.8589 8.69461C14.887 8.69461 16.9151 8.69461 18.9432 8.69461C19.5408 8.69461 20.1385 8.69461 20.7361 8.69461C20.8634 8.69461 20.9907 8.69461 21.118 8.69461C21.1955 8.69461 21.4078 8.72039 21.2003 8.68869C21.2909 8.70254 21.379 8.72986 21.4648 8.76131C21.275 8.6918 21.4138 8.74199 21.4568 8.76442C21.4964 8.78514 21.534 8.80966 21.5714 8.83407C21.7043 8.92078 21.4465 8.72794 21.567 8.83069C21.6009 8.85958 21.6319 8.89158 21.6628 8.92351C21.6939 8.95558 21.7861 9.07894 21.6638 8.91544C21.6995 8.96321 21.7298 9.01477 21.759 9.06664C21.7813 9.10616 21.8395 9.25027 21.7621 9.05857C21.7791 9.10079 21.792 9.14459 21.8048 9.18822C21.8177 9.23246 21.8263 9.27787 21.8347 9.32313C21.794 9.10558 21.8279 9.31236 21.8288 9.36693C21.8354 9.75821 22.1504 10.0849 22.5469 10.0849C22.9333 10.0849 23.2715 9.75835 23.2649 9.36693C23.2463 8.26377 22.4278 7.39967 21.3452 7.27132C21.2219 7.25668 21.0997 7.25863 20.976 7.25863C20.4847 7.25863 19.9934 7.25863 19.502 7.25863C17.571 7.25863 15.64 7.25863 13.7089 7.25863C11.5406 7.25863 9.37232 7.25863 7.20401 7.25863C6.03107 7.25863 4.85812 7.25863 3.68521 7.25863C2.47705 7.25863 1.53089 8.22011 1.53089 9.42372C1.53089 9.88649 1.53089 10.3492 1.53089 10.812C1.53089 12.8303 1.53089 14.8486 1.53089 16.8669C1.53089 18.767 1.53089 20.6672 1.53089 22.5673C1.53089 22.9132 1.5166 23.2625 1.5341 23.6081C1.56087 24.1361 1.78157 24.625 2.14841 25.0037C2.51944 25.3866 3.02242 25.5739 3.54397 25.618C3.93063 25.6507 4.33056 25.6212 4.71808 25.6212C5.08905 25.6212 5.45998 25.6212 5.83092 25.6212C6.22996 25.6212 6.53883 25.2944 6.54892 24.9032C6.55056 24.8397 6.55405 24.7767 6.55952 24.7134C6.56837 24.6338 6.56571 24.6509 6.55152 24.7647C6.55825 24.7188 6.56776 24.6733 6.57723 24.6279C6.58974 24.5678 6.60639 24.5087 6.62359 24.4499C6.63782 24.4013 6.73382 24.1576 6.64547 24.3656C6.69827 24.2413 6.76528 24.1236 6.83855 24.0104C6.855 23.9855 6.87192 23.961 6.88932 23.9368C6.98119 23.8061 6.78521 24.0643 6.88659 23.9411C6.93387 23.8836 6.9854 23.8299 7.03781 23.7773C7.0798 23.7351 7.12449 23.6958 7.16952 23.6569C7.22843 23.6088 7.21485 23.6184 7.12883 23.6856C7.16428 23.6584 7.20128 23.6332 7.2382 23.608C7.34973 23.532 7.46964 23.4691 7.59239 23.4134C7.39295 23.5038 7.5876 23.4198 7.6327 23.4044C7.70515 23.3797 7.77938 23.3608 7.85384 23.3434C7.884 23.3367 7.91426 23.3306 7.94465 23.325C8.10832 23.2935 7.77226 23.343 7.93901 23.3245C8.01789 23.3158 8.09731 23.3135 8.1766 23.3126C8.2402 23.312 8.30376 23.3158 8.36718 23.3203C8.3985 23.3228 8.42975 23.3259 8.46093 23.3297C8.24786 23.3061 8.40879 23.325 8.45413 23.3337C8.58915 23.3597 8.72064 23.4015 8.84879 23.4508C8.64515 23.3725 8.84007 23.4502 8.88298 23.4716C8.94993 23.5051 9.01417 23.5437 9.07753 23.5835C9.12054 23.6104 9.32288 23.767 9.14936 23.6284C9.20749 23.6748 9.26195 23.7256 9.31539 23.7772C9.35813 23.8186 9.3981 23.8627 9.43762 23.9071C9.45718 23.9295 9.47629 23.9523 9.495 23.9755C9.36517 23.8178 9.46422 23.9372 9.48963 23.9733C9.56721 24.0836 9.63186 24.2024 9.6893 24.3243C9.72062 24.3947 9.71419 24.3791 9.67002 24.2777C9.68106 24.306 9.69152 24.3344 9.70147 24.363C9.72719 24.435 9.74719 24.5088 9.76572 24.5828C9.77854 24.6341 9.81803 24.8977 9.78876 24.6666C9.79871 24.745 9.8023 24.8241 9.80435 24.9032C9.81444 25.2943 10.1233 25.6212 10.5224 25.6212C11.812 25.6212 13.1016 25.6212 14.3911 25.6212C16.5173 25.6212 18.6433 25.6212 20.7694 25.6212C21.3619 25.6212 21.9544 25.6212 22.5468 25.6212C22.9382 25.6212 23.2648 25.2945 23.2648 24.9032C23.2648 23.8283 23.2648 22.7534 23.2648 21.6785C23.2648 19.4987 23.2648 17.3189 23.2648 15.1391C23.2648 13.4216 23.2648 11.7042 23.2648 9.98674C23.2648 9.78016 23.2648 9.57355 23.2648 9.36697C23.2648 8.97559 22.9382 8.64896 22.5468 8.64896C22.1554 8.64896 21.8288 8.97555 21.8288 9.36693Z" fill="#FBC100"/>
<path d="M28.8862 24.9407C28.8853 25.0357 28.8797 25.1298 28.8692 25.2242C28.8948 24.9922 28.8488 25.2931 28.834 25.3514C28.8116 25.4397 28.7815 25.5258 28.7489 25.6107C28.8229 25.4176 28.768 25.5636 28.7486 25.6043C28.7229 25.6584 28.6937 25.7106 28.6639 25.7625C28.6195 25.84 28.5686 25.9135 28.5157 25.9854C28.6478 25.8059 28.4647 26.035 28.425 26.0762C28.3633 26.1403 28.2962 26.1991 28.2277 26.2557C28.3852 26.1254 28.2668 26.2248 28.2305 26.2504C28.1819 26.2849 28.131 26.316 28.0799 26.3466C28.0028 26.3927 27.9219 26.4322 27.8401 26.4691C28.0459 26.3761 27.7689 26.488 27.713 26.5045C27.6246 26.5307 27.5341 26.549 27.4432 26.5646C27.6545 26.5283 27.4949 26.5571 27.4482 26.5613C27.385 26.567 27.3216 26.5682 27.2581 26.5689C27.1634 26.5698 27.0687 26.5623 26.9746 26.5519C27.2066 26.5775 26.9057 26.5315 26.8474 26.5167C26.7592 26.4943 26.673 26.4641 26.5881 26.4316C26.7812 26.5056 26.6352 26.4506 26.5945 26.4313C26.5405 26.4056 26.4883 26.3763 26.4364 26.3466C26.3589 26.3022 26.2853 26.2512 26.2134 26.1983C26.393 26.3304 26.1638 26.1473 26.1227 26.1077C26.0586 26.0459 25.9998 25.9789 25.9431 25.9103C26.0734 26.0678 25.974 25.9494 25.9484 25.9132C25.914 25.8645 25.8829 25.8136 25.8523 25.7625C25.8061 25.6854 25.7667 25.6045 25.7297 25.5227C25.8227 25.7285 25.7109 25.4515 25.6944 25.3956C25.6681 25.3072 25.6499 25.2167 25.6343 25.1258C25.6705 25.3371 25.6418 25.1775 25.6376 25.1308C25.6319 25.0676 25.6307 25.0042 25.63 24.9407C25.6291 24.8491 25.6363 24.7576 25.6459 24.6666C25.6214 24.8979 25.6655 24.5968 25.6802 24.5382C25.7023 24.4495 25.7323 24.3631 25.7647 24.2778C25.6914 24.4706 25.7454 24.3243 25.7647 24.2835C25.7902 24.2293 25.8195 24.1768 25.8491 24.1247C25.8934 24.0468 25.9443 23.9729 25.9972 23.9007C25.8659 24.0801 26.0482 23.8502 26.0878 23.8088C26.1496 23.7444 26.2167 23.6854 26.2853 23.6284C26.1284 23.7587 26.2465 23.6589 26.2827 23.6332C26.3314 23.5986 26.3824 23.5673 26.4336 23.5366C26.5108 23.4902 26.5919 23.4506 26.6738 23.4134C26.4686 23.5064 26.7456 23.3941 26.8016 23.3775C26.8902 23.3511 26.981 23.3327 27.072 23.3171C26.861 23.3534 27.0209 23.3245 27.0675 23.3203C27.1308 23.3146 27.1945 23.3133 27.258 23.3126C27.3531 23.3117 27.448 23.3192 27.5424 23.3297C27.3108 23.3041 27.612 23.3504 27.6703 23.3652C27.7588 23.3878 27.8451 23.4181 27.9302 23.4508C27.7373 23.3766 27.8836 23.4321 27.9241 23.4515C27.9783 23.4773 28.0306 23.5067 28.0825 23.5366C28.1602 23.5812 28.2339 23.6325 28.3058 23.6856C28.1268 23.5533 28.3559 23.7376 28.3968 23.7772C28.461 23.8392 28.5198 23.9066 28.5764 23.9755C28.4466 23.8178 28.5457 23.9372 28.5711 23.9733C28.6055 24.0222 28.6365 24.0733 28.6671 24.1246C28.7132 24.2021 28.7524 24.2834 28.7892 24.3655C28.697 24.1597 28.8077 24.4381 28.824 24.4939C28.85 24.5827 28.8679 24.6735 28.8832 24.7647C28.8478 24.5533 28.8753 24.7141 28.8792 24.7604C28.8845 24.8203 28.8856 24.8806 28.8862 24.9407C28.8897 25.332 29.2102 25.6587 29.6042 25.6587C29.9929 25.6587 30.3257 25.3321 30.3222 24.9407C30.3142 24.0436 29.9181 23.1496 29.2114 22.5851C28.4411 21.9697 27.4724 21.7439 26.5087 21.9692C25.651 22.1696 24.8798 22.8054 24.5055 23.5995C24.0847 24.492 24.1085 25.4888 24.5478 26.3693C25.1763 27.6289 26.6677 28.2246 28.0061 27.9126C29.362 27.5966 30.3085 26.3089 30.3222 24.9407C30.3261 24.5492 29.9926 24.2227 29.6042 24.2227C29.2098 24.2227 28.8901 24.5494 28.8862 24.9407Z" fill="#333333"/>
<path d="M9.80471 24.9407C9.80376 25.0357 9.79818 25.1298 9.78776 25.2242C9.81336 24.9922 9.76734 25.2931 9.75254 25.3514C9.73011 25.4397 9.69995 25.5258 9.66737 25.6107C9.74146 25.4176 9.68645 25.5636 9.6671 25.6043C9.64142 25.6584 9.61215 25.7106 9.58244 25.7625C9.53803 25.84 9.48705 25.9135 9.43416 25.9854C9.56627 25.8059 9.38314 26.035 9.34352 26.0762C9.28177 26.1403 9.21472 26.1991 9.1462 26.2557C9.30365 26.1254 9.18525 26.2248 9.149 26.2504C9.10035 26.2849 9.04948 26.316 8.99839 26.3466C8.92129 26.3927 8.84037 26.4322 8.75855 26.4691C8.96438 26.3761 8.6874 26.488 8.63149 26.5045C8.54308 26.5307 8.45254 26.549 8.36173 26.5646C8.57303 26.5283 8.41339 26.5571 8.36672 26.5613C8.30354 26.567 8.24005 26.5682 8.17666 26.5689C8.08188 26.5698 7.9872 26.5623 7.89308 26.5519C8.12513 26.5775 7.82425 26.5315 7.76596 26.5167C7.67768 26.4943 7.59158 26.4641 7.50662 26.4316C7.69976 26.5056 7.5538 26.4506 7.51308 26.4313C7.45903 26.4056 7.40682 26.3763 7.35495 26.3466C7.27744 26.3022 7.20393 26.2512 7.13203 26.1983C7.31156 26.3304 7.08242 26.1473 7.04125 26.1077C6.97714 26.0459 6.91837 25.9789 6.86168 25.9103C6.99198 26.0678 6.89262 25.9494 6.86698 25.9132C6.83259 25.8645 6.80144 25.8136 6.77084 25.7625C6.72468 25.6854 6.68529 25.6045 6.64833 25.5227C6.7413 25.7285 6.62949 25.4515 6.61291 25.3956C6.58672 25.3072 6.56846 25.2167 6.55291 25.1258C6.58911 25.3371 6.56039 25.1775 6.55619 25.1308C6.55048 25.0676 6.54925 25.0042 6.5486 24.9407C6.54767 24.8491 6.55485 24.7576 6.56453 24.6666C6.53995 24.8979 6.58409 24.5968 6.59876 24.5382C6.62091 24.4495 6.65086 24.3631 6.68327 24.2778C6.61004 24.4706 6.66399 24.3243 6.68324 24.2835C6.70881 24.2293 6.73805 24.1768 6.76769 24.1247C6.812 24.0468 6.86295 23.9729 6.91581 23.9007C6.78451 24.0801 6.96682 23.8502 7.00644 23.8088C7.06823 23.7444 7.13534 23.6854 7.20393 23.6284C7.04703 23.7587 7.16512 23.6589 7.20133 23.6332C7.25005 23.5986 7.30103 23.5673 7.35222 23.5366C7.42945 23.4902 7.51052 23.4506 7.59251 23.4134C7.38729 23.5064 7.66431 23.3941 7.72021 23.3775C7.80883 23.3511 7.89961 23.3327 7.99062 23.3171C7.77967 23.3534 7.93951 23.3245 7.98611 23.3203C8.04947 23.3146 8.11313 23.3133 8.17669 23.3126C8.27174 23.3117 8.36665 23.3192 8.46102 23.3297C8.22945 23.3041 8.53073 23.3504 8.58896 23.3652C8.67745 23.3878 8.76374 23.4181 8.84891 23.4508C8.65601 23.3766 8.80228 23.4321 8.84279 23.4515C8.89695 23.4773 8.94926 23.5067 9.00123 23.5366C9.07888 23.5812 9.15253 23.6325 9.22453 23.6856C9.04548 23.5533 9.27455 23.7376 9.31555 23.7772C9.37969 23.8392 9.43846 23.9066 9.49515 23.9755C9.36533 23.8178 9.46438 23.9372 9.48978 23.9733C9.52418 24.0222 9.55522 24.0733 9.58576 24.1246C9.63185 24.2021 9.67113 24.2834 9.70792 24.3655C9.61571 24.1597 9.72638 24.4381 9.74266 24.4939C9.76864 24.5827 9.78663 24.6735 9.80184 24.7647C9.76649 24.5533 9.79391 24.7141 9.79791 24.7604C9.803 24.8203 9.80417 24.8806 9.80471 24.9407C9.80837 25.332 10.1286 25.6587 10.5227 25.6587C10.9114 25.6587 11.2444 25.3321 11.2407 24.9407C11.2323 24.0435 10.8368 23.1498 10.1299 22.5851C9.35962 21.9697 8.39089 21.7439 7.4272 21.9692C6.56949 22.1696 5.79832 22.8054 5.42396 23.5995C5.00314 24.492 5.02691 25.4888 5.46626 26.3693C6.09478 27.6289 7.58622 28.2246 8.92461 27.9126C10.2804 27.5966 11.227 26.309 11.2407 24.9407C11.2446 24.5492 10.9112 24.2227 10.5227 24.2227C10.1284 24.2227 9.80865 24.5494 9.80471 24.9407Z" fill="#333333"/>
<path d="M29.1505 17.6762C27.7892 17.6762 26.4279 17.6762 25.0666 17.6762C25.3059 17.9155 25.5453 18.1548 25.7846 18.3942C25.7846 17.1808 25.7846 15.9675 25.7846 14.7541C25.5453 14.9935 25.3059 15.2328 25.0666 15.4721C25.8295 15.4721 26.5947 15.4541 27.3574 15.4734C27.5224 15.4775 27.193 15.4386 27.3466 15.4762C27.4965 15.5129 27.199 15.3992 27.3332 15.4673C27.3817 15.4919 27.4777 15.5813 27.3226 15.4502C27.3607 15.4824 27.445 15.5945 27.3202 15.4283C27.3457 15.4622 27.3654 15.5 27.3852 15.5373C27.2937 15.3643 27.3586 15.4749 27.3752 15.5303C27.3819 15.5527 27.3847 15.5701 27.392 15.5904C27.4343 15.7094 27.4766 15.8282 27.519 15.9471C27.693 16.4359 27.8671 16.9248 28.0411 17.4136C28.1801 17.8041 28.3192 18.1946 28.4582 18.5851C28.5893 18.9534 28.9431 19.1961 29.3414 19.0866C29.6978 18.9886 29.9743 18.5723 29.8429 18.2033C29.5587 17.405 29.2745 16.6067 28.9902 15.8084C28.9299 15.639 28.8696 15.4696 28.8093 15.3003C28.7368 15.0966 28.6821 14.8855 28.5601 14.7035C28.2748 14.2777 27.8113 14.0361 27.2985 14.0361C27.1472 14.0361 26.9959 14.0361 26.8446 14.0361C26.252 14.0361 25.6593 14.0361 25.0666 14.0361C24.6753 14.0361 24.3486 14.3627 24.3486 14.7541C24.3486 15.9675 24.3486 17.1809 24.3486 18.3942C24.3486 18.7856 24.6753 19.1122 25.0666 19.1122C26.4279 19.1122 27.7893 19.1122 29.1506 19.1122C29.542 19.1122 29.8686 18.7856 29.8686 18.3942C29.8686 18.0028 29.5419 17.6762 29.1505 17.6762Z" fill="#333333"/>
<path d="M18.9178 14.0361C17.6898 14.0361 16.4617 14.0361 15.2336 14.0361C14.8422 14.0361 14.5156 14.3627 14.5156 14.7541C14.5156 15.1456 14.8422 15.4721 15.2336 15.4721C16.4617 15.4721 17.6898 15.4721 18.9178 15.4721C19.3092 15.4721 19.6359 15.1456 19.6359 14.7541C19.6359 14.3627 19.3092 14.0361 18.9178 14.0361Z" fill="#FBC100"/>
<path d="M18.9176 17.6763C17.5238 17.6763 16.1301 17.6763 14.7363 17.6763C12.7828 17.6763 10.8294 17.6763 8.8759 17.6763C8.6779 17.6763 8.47993 17.6763 8.28197 17.6763C7.89059 17.6763 7.56396 18.0029 7.56396 18.3943C7.56396 18.7857 7.89059 19.1123 8.28197 19.1123C9.67572 19.1123 11.0695 19.1123 12.4632 19.1123C14.4167 19.1123 16.3702 19.1123 18.3236 19.1123C18.5216 19.1123 18.7196 19.1123 18.9176 19.1123C19.3089 19.1123 19.6356 18.7857 19.6356 18.3943C19.6356 18.0029 19.3089 17.6763 18.9176 17.6763Z" fill="#FBC100"/>
</svg>
